<svg width="70" height="70" viewBox="0 0 70 70" fill="none" xmlns="http://www.w3.org/2000/svg">
<rect width="70" height="70" rx="5" fill="#004080"/>
<path d="M42.8125 10L60 18.6657V37.9911L56.875 36.4156V22.1861L44.375 28.4884V34.84L41.25 36.4156V28.4884L28.75 22.1861V27.7745L25.625 26.1989V18.6657L42.8125 10ZM42.8125 25.7558L47.1338 23.5647L35.8301 17.0409L30.6787 19.6504L42.8125 25.7558ZM50.5029 21.8907L54.9463 19.6504L42.8125 13.5204L39.1748 15.3668L50.5029 21.8907ZM38.125 37.9911L35 39.5667V39.5421L25.625 44.2688V55.4702L35 50.7189V54.2639L24.0625 59.7784L10 52.6637V36.0217L24.0625 28.9316L38.125 36.0217V37.9911ZM22.5 55.4702V44.2688L13.125 39.5421V50.7189L22.5 55.4702ZM24.0625 41.5362L33.0713 37.0064L24.0625 32.452L15.0537 37.0064L24.0625 41.5362ZM38.125 41.5116L49.0625 35.997L60 41.5116V54.4855L49.0625 60L38.125 54.4855V41.5116ZM47.5 55.6918V48.1832L41.25 45.032V52.5406L47.5 55.6918ZM56.875 52.5406V45.032L50.625 48.1832V55.6918L56.875 52.5406ZM49.0625 45.4505L54.9463 42.4717L49.0625 39.5175L43.1787 42.4717L49.0625 45.4505Z" fill="white"/>
</svg>
