<svg width="70" height="70" viewBox="0 0 70 70" fill="none" xmlns="http://www.w3.org/2000/svg">
<path d="M45.3125 2L68 13.4387V38.9483L63.875 36.8685V18.0857L47.375 26.4047V34.7888L43.25 36.8685V26.4047L26.75 18.0857V25.4623L22.625 23.3826V13.4387L45.3125 2ZM45.3125 22.7976L51.0166 19.9055L36.0957 11.2939L29.2959 14.7386L45.3125 22.7976ZM55.4639 17.6957L61.3291 14.7386L45.3125 6.64697L40.5107 9.0842L55.4639 17.6957ZM39.125 38.9483L35 41.0281V40.9956L22.625 47.2349V62.0207L35 55.7489V60.4284L20.5625 67.7075L2 58.3161V36.3486L20.5625 26.9897L39.125 36.3486V38.9483ZM18.5 62.0207V47.2349L6.125 40.9956V55.7489L18.5 62.0207ZM20.5625 43.6278L32.4541 37.6484L20.5625 31.6366L8.6709 37.6484L20.5625 43.6278ZM39.125 43.5953L53.5625 36.3161L68 43.5953V60.7208L53.5625 68L39.125 60.7208V43.5953ZM51.5 62.3131V52.4018L43.25 48.2422V58.1536L51.5 62.3131ZM63.875 58.1536V48.2422L55.625 52.4018V62.3131L63.875 58.1536ZM53.5625 48.7947L61.3291 44.8626L53.5625 40.9631L45.7959 44.8626L53.5625 48.7947Z" fill="white"/>
</svg>
